<svg id="black" xmlns="http://www.w3.org/2000/svg" xmlns:xlink="http://www.w3.org/1999/xlink" viewBox="0 0 220 220"><defs><style>.cls-1{fill:none;}.cls-2{fill:#231f20;}.cls-3{clip-path:url(#clip-path);}</style><clipPath id="clip-path"><rect class="cls-1" x="19.65" y="22.1" width="104.42" height="79.07"/></clipPath></defs><title>butts_buster</title><path class="cls-2" d="M134,185.61c-7.42.36-15-1.56-22.81-2.24-3.24-.29-4.72-1.73-3.43-5.11,1.12-2.95,1.94-6.09,4.49-8.19,3.82-3.15,2.63-4.9-1.46-6.21-3.55-1.13-4.81-3.3-2.83-6.72,1.67-2.9.64-5-2.25-6.14-10.89-4.22-16.13-13.19-21.29-22.73-12.09-22.37-24.66-44.5-37.3-66.58-2.61-4.56-2.58-7.14,2.71-9.47a124.78,124.78,0,0,0,16.29-8.8c4.84-3.07,7.54-3,10.59,2.63,14.15,26,28.9,51.61,43.13,77.54,2.68,4.87,6,8.83,10.66,11.59,7.78,4.58,10.84,11.63,11.77,20,.83,7.4,1.69,14.8,2.75,22.17,1.1,7.65.78,8.15-7,8.24Zm-7-39.69c-2.72,3.57-5.41,4.13-7.45,5.53a6.36,6.36,0,0,0-3.08,5.44c.08,2.37,2.75,2.52,4.39,3.47,4.42,2.56,5.83-3.12,9.29-3.43-1.22,5.31-1.44,6-8.89,14.13-3.13,3.4-1.81,4.31,1.79,5.21,8.69,2.18,14.77-2.94,13.23-11.34-.77-4.24-1.57-8.49-2.66-12.66-.84-3.21-1.83-6.47-5.09-8.35-9-5.18-14.45-13.22-18.94-22.16-3-6-6.49-11.74-9.84-17.54C93,92.58,93,92.68,81.46,99.7c-2.73,1.66-3,3.17-1.53,5.69,4.16,7.17,8.6,14.21,12.16,21.66,3.74,7.84,9.41,13.14,17,17.48C114.57,147.69,119.81,147.74,127,145.92Z"/><path class="cls-2" d="M190.18,151.35l-4.86,12.76c-1,1.75-1.92,3.51-2.9,5.25A83.49,83.49,0,0,1,102,211.11a118.06,118.06,0,0,1-15.3-2.83L74,203.41c-2.09-1.14-4.2-2.23-6.26-3.43-39.62-23.15-53-74.72-29.56-114.28a83.42,83.42,0,0,1,154.67,52.13A124.15,124.15,0,0,1,190.18,151.35ZM46.57,103.89c-.76,2-1.47,4.06-2,6.15a67.21,67.21,0,0,0,0,36.25c.64,2.34.65,2.35,2.89,1.35l119-53.33c1.94-.87,2-.89.84-2.63-10.79-16.67-26-26.94-45.48-30.43A67.53,67.53,0,0,0,46.57,103.89Zm34.35,85.77c15,5.76,25.46,7.14,36.2,6a68,68,0,0,0,58.16-86.37c-.43-1.52-1-1.56-2.29-1-3.92,1.83-7.9,3.57-11.85,5.34L53.45,161.89c-1.92.86-1.92.88-.79,2.65C60.78,177.15,71.85,186.15,80.92,189.66Z"/><path class="cls-2" d="M153.84,9.35c-2.25,4.78-4.37,8.91-6.17,13.16-4.66,11-3.95,21.11,4,30.78,9.08,11.06,8.65,19.4-1.18,29.61-6.94,7.2-7.52,14.95-3.29,23.31a58.49,58.49,0,0,1,6.63,30.34,15.76,15.76,0,0,1-2.08,8.09c-.4-4-.74-7.16-1-10.31-.83-9-4.09-17.05-8.3-24.92-7.09-13.24-6.16-20.51,3.63-31.8,6.95-8,7.49-12.29.76-20.7C133.07,39.76,140.93,22,152.07,9.68,152.24,9.5,152.68,9.56,153.84,9.35Z"/><g class="cls-3"><path class="cls-2" d="M134,185.61c-7.42.36-15-1.56-22.81-2.24-3.24-.29-4.72-1.73-3.43-5.11,1.12-2.95,1.94-6.09,4.49-8.19,3.82-3.15,2.63-4.9-1.46-6.21-3.55-1.13-4.81-3.3-2.83-6.72,1.67-2.9.64-5-2.25-6.14-10.89-4.22-16.13-13.19-21.29-22.73-12.09-22.37-24.66-44.5-37.3-66.58-2.61-4.56-2.58-7.14,2.71-9.47a124.78,124.78,0,0,0,16.29-8.8c4.84-3.07,7.54-3,10.59,2.63,14.15,26,28.9,51.61,43.13,77.54,2.68,4.87,6,8.83,10.66,11.59,7.78,4.58,10.84,11.63,11.77,20,.83,7.4,1.69,14.8,2.75,22.17,1.1,7.65.78,8.15-7,8.24Zm-7-39.69c-2.72,3.57-5.41,4.13-7.45,5.53a6.36,6.36,0,0,0-3.08,5.44c.08,2.37,2.75,2.52,4.39,3.47,4.42,2.56,5.83-3.12,9.29-3.43-1.22,5.31-1.44,6-8.89,14.13-3.13,3.4-1.81,4.31,1.79,5.21,8.69,2.18,14.77-2.94,13.23-11.34-.77-4.24-1.57-8.49-2.66-12.66-.84-3.21-1.83-6.47-5.09-8.35-9-5.18-14.45-13.22-18.94-22.16-3-6-6.49-11.74-9.84-17.54C93,92.58,93,92.68,81.46,99.7c-2.73,1.66-3,3.17-1.53,5.69,4.16,7.17,8.6,14.21,12.16,21.66,3.74,7.84,9.41,13.14,17,17.48C114.57,147.69,119.81,147.74,127,145.92Z"/></g></svg>